<?xml version="1.0" standalone="no"?>
<!DOCTYPE svg PUBLIC "-//W3C//DTD SVG 20010904//EN"
 "http://www.w3.org/TR/2001/REC-SVG-20010904/DTD/svg10.dtd">
<svg version="1.0" xmlns="http://www.w3.org/2000/svg"
 width="700.000000pt" height="700.000000pt" viewBox="0 0 700.000000 700.000000"
 preserveAspectRatio="xMidYMid meet">
<metadata>
Created by potrace 1.11, written by Peter Selinger 2001-2013
</metadata>
<g transform="translate(0.000000,700.000000) scale(0.100000,-0.100000)"
fill="#000000" stroke="none">
<path d="M0 3500 l0 -3500 3500 0 3500 0 0 3500 0 3500 -3500 0 -3500 0 0
-3500z m6851 3345 c1 -5 2 -1514 3 -3352 1 -3334 1 -3342 -19 -3345 -17 -3
-6635 -2 -6675 1 -13 1 -15 378 -14 3338 1 1836 2 3345 3 3353 1 13 380 15
3351 15 2226 0 3350 -3 3351 -10z"/>
<path d="M5368 6085 c-2 -1 -37 -6 -78 -9 -97 -9 -251 -48 -365 -93 -522 -206
-951 -699 -1061 -1221 -48 -232 -38 -433 34 -640 l25 -74 -1421 -1421 -1422
-1422 205 -205 205 -205 1002 997 c551 549 1005 998 1008 998 3 0 456 -450
1005 -1000 l1000 -1000 203 203 c111 111 202 205 202 209 0 5 -450 458 -999
1007 l-999 999 215 213 c118 118 217 213 221 211 68 -25 186 -62 217 -67 122
-21 242 -24 359 -10 568 67 1118 508 1348 1080 33 82 63 181 74 245 3 14 7 32
9 40 10 34 18 120 19 205 4 196 -37 366 -125 522 -62 110 -206 253 -319 316
-88 49 -199 88 -310 107 -60 11 -244 22 -252 15z"/>
<path d="M1074 5907 c-44 -54 -78 -102 -121 -172 -44 -72 -107 -236 -130 -343
-27 -125 -23 -388 7 -507 6 -22 13 -49 15 -61 19 -85 124 -289 199 -384 28
-36 336 -350 685 -698 l635 -633 413 413 413 413 -1020 1017 c-561 560 -1026
1018 -1033 1017 -6 0 -35 -28 -63 -62z"/>
</g>
</svg>
